{"title":"Ouija (2014) WEB-DL 1080p HC AC3 2.0 English [XKlusiveDD]","uid":11389203,"size":1907319670,"categoryP":"video","categoryS":"hd___movies","magnet":"?xt=urn:btih:19389fb7bbb1e59e2a9d35ea0a3d63bba0a22b55&amp;dn=Ouija+%282014%29+WEB-DL+1080p+HC+AC3+2.0+English+%5BXKlusiveDD%5D&amp;tr=udp%3A%2F%2Ftracker.openbittorrent.com%3A80&amp;tr=udp%3A%2F%2Fopen.demonii.com%3A1337&amp;tr=udp%3A%2F%2Ftracker.coppersurfer.tk%3A6969&amp;tr=udp%3A%2F%2Fexodus.desync.com%3A6969","seeders":5,"leechers":0,"uploader":"XKluisve","files":-1,"time":1415303116,"description":"\n\nXKlusiveDD  PROUDLY PRESENTS....A XKlusiveDD EXCLUSIVE\n    &lt;a href=&quot;\nhttp://i.imgur.com/9EHFrqw.png&quot; rel=&quot;nofollow&quot; target=&quot;_NEW&quot;&gt;\nhttp://i.imgur.com/9EHFrqw.png&lt;/a&gt;\n\n\nNEW SOURCE.......VIDEO WEB.......AUDIO WEB IN ENGLISH.......SUBS HARDCORE CHINNESE.......ENJOY.......XKlusiveDD\n\n\nSCREENSHOTS: \n  &lt;a href=&quot;\nhttp://i.imgur.com/CmM0eBs.jpg&quot; rel=&quot;nofollow&quot; target=&quot;_NEW&quot;&gt;\nhttp://i.imgur.com/CmM0eBs.jpg&lt;/a&gt; &lt;a href=&quot;\nhttp://i.imgur.com/b9IaET4.jpg&quot; rel=&quot;nofollow&quot; target=&quot;_NEW&quot;&gt;\nhttp://i.imgur.com/b9IaET4.jpg&lt;/a&gt; &lt;a href=&quot;\nhttp://i.imgur.com/li4bOuo.jpg&quot; rel=&quot;nofollow&quot; target=&quot;_NEW&quot;&gt;\nhttp://i.imgur.com/li4bOuo.jpg&lt;/a&gt; &lt;a href=&quot;\nhttp://i.imgur.com/p7wBUZc.jpg&quot; rel=&quot;nofollow&quot; target=&quot;_NEW&quot;&gt;\nhttp://i.imgur.com/p7wBUZc.jpg&lt;/a&gt; &lt;a href=&quot;\nhttp://i.imgur.com/5bhbTQh.jpg&quot; rel=&quot;nofollow&quot; target=&quot;_NEW&quot;&gt;\nhttp://i.imgur.com/5bhbTQh.jpg&lt;/a&gt; &lt;a href=&quot;\nhttp://i.imgur.com/5JMkk6r.jpg&quot; rel=&quot;nofollow&quot; target=&quot;_NEW&quot;&gt;\nhttp://i.imgur.com/5JMkk6r.jpg&lt;/a&gt;\n\n\nOuija (2014) WEB-DL x264 1080p HC AC3 2.0 English [XKlusiveDD]\n\nGeneral\nComplete name                            : Ouija (2014) WEB-DL 1080p HC x264 AC3 2.0 English [XKlusiveDD].mkv\nFormat                                   : Matroska\nFormat version                           : Version 2\nFile size                                : 1.78 GiB\nDuration                                 : 1h 29mn\nOverall bit rate                         : 2 855 Kbps\nMovie name                               : Ouija (2014) WEB-DL x264 1080p HC AC3 2.0 English [XKlusiveDD]\nEncoded date                             : UTC 2014-11-06 18:42:12\nWriting application                      : mkvmerge v3.4.0 ('Rapunzel') built on May 15 2010 09:38:20\nWriting library                          : libebml v0.8.0 + libmatroska v0.9.0\n\nVideo\nID                                       : 1\nFormat                                   : AVC\nFormat/Info                              : Advanced Video Codec\nFormat profile                           : &lt;a class=&quot;__cf_email__&quot; href=&quot;/cdn-cgi/l/email-protection&quot; data-cfemail=&quot;6528040c0b2529514b55&quot;&gt;[email&amp;#160;protected]&lt;/a&gt;&lt;script cf-hash='f9e31' type=&quot;text/javascript&quot;&gt;\n/* &lt;![CDATA[ */!function(){try{var t=&quot;currentScript&quot;in document?document.currentScript:function(){for(var t=document.getElementsByTagName(&quot;script&quot;),e=t.length;e--;)if(t[e].getAttribute(&quot;cf-hash&quot;))return t[e]}();if(t&amp;&amp;t.previousSibling){var e,r,n,i,c=t.previousSibling,a=c.getAttribute(&quot;data-cfemail&quot;);if(a){for(e=&quot;&quot;,r=parseInt(a.substr(0,2),16),n=2;a.length-n;n+=2)i=parseInt(a.substr(n,2),16)^r,e+=String.fromCharCode(i);e=document.createTextNode(e),c.parentNode.replaceChild(e,c)}}}catch(u){}}();/* ]]&gt; */&lt;/script&gt;\nFormat settings, CABAC                   : Yes\nFormat settings, ReFrames                : 4 frames\nCodec ID                                 : V_MPEG4/ISO/AVC\nDuration                                 : 1h 29mn\nBit rate                                 : 2 542 Kbps\nWidth                                    : 1 920 pixels\nHeight                                   : 800 pixels\nDisplay aspect ratio                     : 2.40:1\nFrame rate mode                          : Constant\nFrame rate                               : 23.976 fps\nColor space                              : YUV\nChroma subsampling                       : 4:2:0\nBit depth                                : 8 bits\nScan type                                : Progressive\nBits/(Pixel*Frame)                       : 0.069\nStream size                              : 1.58 GiB (89%)\nTitle                                    : WEB-DL x264 1080p HC [XKlusiveDD]\nLanguage                                 : English\nDefault                                  : Yes\nForced                                   : No\nColor primaries                          : BT.709\nTransfer characteristics                 : BT.709\nMatrix coefficients                      : BT.709\n\nAudio\nID                                       : 2\nFormat                                   : AC-3\nFormat/Info                              : Audio Coding 3\nMode extension                           : CM (complete main)\nFormat settings, Endianness              : Big\nCodec ID                                 : A_AC3\nDuration                                 : 1h 29mn\nBit rate mode                            : Constant\nBit rate                                 : 256 Kbps\nChannel count                            : 2 channels\nChannel positions                        : Front: L R\nSampling rate                            : 48.0 KHz\nBit depth                                : 16 bits\nCompression mode                         : Lossy\nStream size                              : 163 MiB (9%)\nTitle                                    : AC3 2.0 English [XKlusiveDD]\nLanguage                                 : English\nDefault                                  : Yes\nForced                                   : No","torrent":{"xt":"urn:btih:19389fb7bbb1e59e2a9d35ea0a3d63bba0a22b55","amp;dn":"Ouija+%282014%29+WEB-DL+1080p+HC+AC3+2.0+English+%5BXKlusiveDD%5D","amp;tr":["udp%3A%2F%2Ftracker.openbittorrent.com%3A80","udp%3A%2F%2Fopen.demonii.com%3A1337","udp%3A%2F%2Ftracker.coppersurfer.tk%3A6969","udp%3A%2F%2Fexodus.desync.com%3A6969"],"infoHash":"19389fb7bbb1e59e2a9d35ea0a3d63bba0a22b55","infoHashBuffer":{"type":"Buffer","data":[25,56,159,183,187,177,229,158,42,157,53,234,10,61,99,187,160,162,43,85]},"announce":[],"urlList":[]}}